<?xml version="1.0" encoding="UTF-8"?>
<!DOCTYPE svg PUBLIC "-//W3C//DTD SVG 1.1//EN" "http://www.w3.org/Graphics/SVG/1.1/DTD/svg11.dtd">
<svg version="1.2" width="247.65mm" height="165.1mm" viewBox="0 0 24765 16510" preserveAspectRatio="xMidYMid" fill-rule="evenodd" stroke-width="28.222" stroke-linejoin="round" xmlns="http://www.w3.org/2000/svg" xmlns:ooo="http://xml.openoffice.org/svg/export" xmlns:xlink="http://www.w3.org/1999/xlink" xmlns:presentation="http://sun.com/xmlns/staroffice/presentation" xmlns:smil="http://www.w3.org/2001/SMIL20/" xmlns:anim="urn:oasis:names:tc:opendocument:xmlns:animation:1.0" xml:space="preserve">
 <defs class="ClipPathGroup">
  <clipPath id="presentation_clip_path" clipPathUnits="userSpaceOnUse">
   <rect x="0" y="0" width="24765" height="16510"/>
  </clipPath>
  <clipPath id="presentation_clip_path_shrink" clipPathUnits="userSpaceOnUse">
   <rect x="24" y="16" width="24716" height="16477"/>
  </clipPath>
 </defs>
 <defs class="TextShapeIndex">
  <g ooo:slide="id1" ooo:id-list="id3 id4 id5 id6 id7 id8 id9 id10 id11 id12 id13 id14 id15 id16 id17 id18 id19 id20 id21 id22 id23"/>
 </defs>
 <defs class="EmbeddedBulletChars">
  <g id="bullet-char-template-57356" transform="scale(0.00048828125,-0.00048828125)">
   <path d="M 580,1141 L 1163,571 580,0 -4,571 580,1141 Z"/>
  </g>
  <g id="bullet-char-template-57354" transform="scale(0.00048828125,-0.00048828125)">
   <path d="M 8,1128 L 1137,1128 1137,0 8,0 8,1128 Z"/>
  </g>
  <g id="bullet-char-template-10146" transform="scale(0.00048828125,-0.00048828125)">
   <path d="M 174,0 L 602,739 174,1481 1456,739 174,0 Z M 1358,739 L 309,1346 659,739 1358,739 Z"/>
  </g>
  <g id="bullet-char-template-10132" transform="scale(0.00048828125,-0.00048828125)">
   <path d="M 2015,739 L 1276,0 717,0 1260,543 174,543 174,936 1260,936 717,1481 1274,1481 2015,739 Z"/>
  </g>
  <g id="bullet-char-template-10007" transform="scale(0.00048828125,-0.00048828125)">
   <path d="M 0,-2 C -7,14 -16,27 -25,37 L 356,567 C 262,823 215,952 215,954 215,979 228,992 255,992 264,992 276,990 289,987 310,991 331,999 354,1012 L 381,999 492,748 772,1049 836,1024 860,1049 C 881,1039 901,1025 922,1006 886,937 835,863 770,784 769,783 710,716 594,584 L 774,223 C 774,196 753,168 711,139 L 727,119 C 717,90 699,76 672,76 641,76 570,178 457,381 L 164,-76 C 142,-110 111,-127 72,-127 30,-127 9,-110 8,-76 1,-67 -2,-52 -2,-32 -2,-23 -1,-13 0,-2 Z"/>
  </g>
  <g id="bullet-char-template-10004" transform="scale(0.00048828125,-0.00048828125)">
   <path d="M 285,-33 C 182,-33 111,30 74,156 52,228 41,333 41,471 41,549 55,616 82,672 116,743 169,778 240,778 293,778 328,747 346,684 L 369,508 C 377,444 397,411 428,410 L 1163,1116 C 1174,1127 1196,1133 1229,1133 1271,1133 1292,1118 1292,1087 L 1292,965 C 1292,929 1282,901 1262,881 L 442,47 C 390,-6 338,-33 285,-33 Z"/>
  </g>
  <g id="bullet-char-template-9679" transform="scale(0.00048828125,-0.00048828125)">
   <path d="M 813,0 C 632,0 489,54 383,161 276,268 223,411 223,592 223,773 276,916 383,1023 489,1130 632,1184 813,1184 992,1184 1136,1130 1245,1023 1353,916 1407,772 1407,592 1407,412 1353,268 1245,161 1136,54 992,0 813,0 Z"/>
  </g>
  <g id="bullet-char-template-8226" transform="scale(0.00048828125,-0.00048828125)">
   <path d="M 346,457 C 273,457 209,483 155,535 101,586 74,649 74,723 74,796 101,859 155,911 209,963 273,989 346,989 419,989 480,963 531,910 582,859 608,796 608,723 608,648 583,586 532,535 482,483 420,457 346,457 Z"/>
  </g>
  <g id="bullet-char-template-8211" transform="scale(0.00048828125,-0.00048828125)">
   <path d="M -4,459 L 1135,459 1135,606 -4,606 -4,459 Z"/>
  </g>
  <g id="bullet-char-template-61548" transform="scale(0.00048828125,-0.00048828125)">
   <path d="M 173,740 C 173,903 231,1043 346,1159 462,1274 601,1332 765,1332 928,1332 1067,1274 1183,1159 1299,1043 1357,903 1357,740 1357,577 1299,437 1183,322 1067,206 928,148 765,148 601,148 462,206 346,322 231,437 173,577 173,740 Z"/>
  </g>
 </defs>
 <g>
  <g id="id2" class="Master_Slide">
   <g id="bg-id2" class="Background"/>
   <g id="bo-id2" class="BackgroundObjects"/>
  </g>
 </g>
 <g class="SlideGroup">
  <g>
   <g id="container-id1">
    <g id="id1" class="Slide" clip-path="url(#presentation_clip_path)">
     <g class="Page">
      <g id="bg-id1" class="Background">
       <defs>
        <linearGradient id="Gradient_3" gradientUnits="userSpaceOnUse" x1="0" y1="0" x2="12382" y2="16509">
         <stop offset="0" stop-color="rgb(91,39,125)"/>
         <stop offset="1" stop-color="rgb(30,10,70)"/>
        </linearGradient>
       </defs>
       <path fill="url(#Gradient_3)" stroke="none" d="M 12382,16509 L 0,16509 0,0 24764,0 24764,16509 12382,16509 Z"/>
      </g>
      <g class="com.sun.star.drawing.ClosedBezierShape">
       <g id="id3">
        <rect class="BoundingBox" stroke="none" fill="none" x="3048" y="-6003" width="13360" height="9442"/>
        <g>
         <defs>
          <linearGradient id="gradient1" x1="3048" y1="-1284" x2="16405" y2="-1284" gradientUnits="userSpaceOnUse">
           <stop offset="0" style="stop-color:rgb(180,199,220)"/>
           <stop offset="1" style="stop-color:rgb(52,101,164)"/>
          </linearGradient>
         </defs>
         <path style="fill:url(#gradient1)" d="M 5073,-326 L 5146,-24 5239,248 5349,492 5475,709 5616,901 5771,1068 5938,1212 6115,1334 6302,1436 6496,1519 6697,1584 6903,1632 7325,1685 7750,1688 8166,1651 8564,1585 8931,1500 9257,1408 9738,1240 9919,1165 10006,1143 10244,1095 10594,1046 11022,1021 11253,1026 11490,1047 11727,1087 11961,1149 12187,1236 12400,1352 12595,1499 12685,1586 12768,1682 13241,2264 13370,2416 13445,2499 13467,2521 13480,2533 13484,2535 13485,2536 13486,2536 13487,2536 13487,2536 13487,2536 13488,2535 13488,2535 13488,2534 13487,2531 13486,2528 13483,2521 13478,2513 13608,2666 13756,2821 13949,2998 14176,3171 14429,3317 14562,3373 14699,3413 14837,3434 14976,3434 15115,3409 15253,3356 15388,3273 15520,3157 15646,3003 15767,2811 15881,2575 15987,2294 16169,1584 16306,656 16387,-513 16405,-1949 16358,-2692 16239,-3347 16053,-3918 15804,-4411 15497,-4828 15137,-5175 14729,-5454 14278,-5672 13789,-5831 13265,-5936 12713,-5991 12137,-6001 10933,-5900 9691,-5667 8451,-5336 7250,-4940 5122,-4087 3618,-3378 3048,-3082 5073,-326 Z"/>
        </g>
       </g>
      </g>
      <g class="com.sun.star.drawing.ClosedBezierShape">
       <g id="id4">
        <rect class="BoundingBox" stroke="none" fill="none" x="-3176" y="-6657" width="19942" height="10798"/>
        <defs>
         <mask id="mask1">
          <g>
           <defs>
            <linearGradient id="gradient2" x1="6794" y1="-6656" x2="6794" y2="4139" gradientUnits="userSpaceOnUse">
             <stop offset="0.5" style="stop-color:rgb(64,64,64)"/>
             <stop offset="1" style="stop-color:rgb(64,64,64)"/>
            </linearGradient>
           </defs>
           <path style="fill:url(#gradient2)" d="M -3175,-6656 L 16764,-6656 16764,4139 -3175,4139 -3175,-6656 Z"/>
          </g>
         </mask>
        </defs>
        <g style="mask:url(#mask1)">
         <g>
          <defs>
           <linearGradient id="gradient3" x1="-3175" y1="-1259" x2="16764" y2="-1259" gradientUnits="userSpaceOnUse">
            <stop offset="0" style="stop-color:rgb(255,255,255)"/>
            <stop offset="1" style="stop-color:rgb(52,101,164)"/>
           </linearGradient>
          </defs>
          <path style="fill:url(#gradient3)" d="M -266,4139 L 1054,4096 2247,3975 3318,3787 4273,3544 5118,3255 5859,2933 6501,2589 7051,2234 7514,1879 7897,1535 8204,1213 8443,924 8618,681 8736,493 8802,372 8823,329 8826,312 8838,261 8865,181 8914,73 8992,-59 9105,-213 9258,-387 9460,-576 9715,-779 10031,-992 10413,-1213 10868,-1439 11404,-1667 12025,-1895 13550,-2338 14342,-2575 14997,-2852 15529,-3161 15947,-3495 16118,-3669 16265,-3846 16390,-4026 16494,-4207 16579,-4388 16646,-4569 16731,-4926 16763,-5269 16753,-5591 16712,-5885 16652,-6142 16585,-6355 16523,-6517 16459,-6656 -3175,-4878 -266,4139 Z"/>
         </g>
        </g>
        <path fill="none" stroke="rgb(183,179,202)" d="M -266,4139 C 7127,4139 8823,329 8823,329 8823,329 8945,-1195 13550,-2338 18155,-3481 16459,-6656 16459,-6656 L -3175,-4878 -266,4139 Z"/>
       </g>
      </g>
      <g class="com.sun.star.drawing.OpenBezierShape">
       <g id="id5">
        <rect class="BoundingBox" stroke="none" fill="none" x="-3479" y="-6224" width="27943" height="17529"/>
        <path fill="none" stroke="rgb(91,78,139)" d="M -3478,11303 C 5412,10541 9095,7874 9095,7874 9095,7874 13921,5080 19255,7239 24589,9398 21541,-3429 21541,-3429 L 24462,-6223"/>
       </g>
      </g>
      <g class="com.sun.star.drawing.OpenBezierShape">
       <g id="id6">
        <rect class="BoundingBox" stroke="none" fill="none" x="-6579" y="-5524" width="32743" height="17529"/>
        <path fill="none" stroke="rgb(107,94,155)" d="M -6578,12003 C 3839,11241 8155,8574 8155,8574 8155,8574 13810,5780 20060,7939 26311,10098 22739,-2729 22739,-2729 L 26162,-5523"/>
       </g>
      </g>
      <g class="com.sun.star.drawing.OpenBezierShape">
       <g id="id7">
        <rect class="BoundingBox" stroke="none" fill="none" x="-8879" y="-3824" width="36567" height="16780"/>
        <path fill="none" stroke="rgb(107,94,155)" d="M -8878,12954 C 2756,12225 7576,9672 7576,9672 7576,9672 13891,6997 20872,9064 27852,11130 23863,-1148 23863,-1148 L 27686,-3823"/>
       </g>
      </g>
      <g class="com.sun.star.drawing.OpenBezierShape">
       <g id="id8">
        <rect class="BoundingBox" stroke="none" fill="none" x="-8179" y="-2923" width="36567" height="16780"/>
        <path fill="none" stroke="rgb(113,99,163)" d="M -8178,13855 C 3456,13126 8276,10573 8276,10573 8276,10573 14591,7898 21572,9965 28552,12031 24563,-247 24563,-247 L 28386,-2922"/>
       </g>
      </g>
      <g class="com.sun.star.drawing.OpenBezierShape">
       <g id="id9">
        <rect class="BoundingBox" stroke="none" fill="none" x="-1379" y="-7024" width="24828" height="17529"/>
        <path fill="none" stroke="rgb(158,30,131)" d="M -1378,10503 C 6521,9741 9793,7074 9793,7074 9793,7074 14081,4280 18821,6439 23560,8598 20852,-4229 20852,-4229 L 23447,-7023"/>
       </g>
      </g>
      <g class="com.sun.star.drawing.OpenBezierShape">
       <g id="id10">
        <rect class="BoundingBox" stroke="none" fill="none" x="-78" y="-8256" width="19806" height="17529"/>
        <path fill="none" stroke="rgb(78,65,128)" d="M -77,9271 C 6224,8509 8834,5842 8834,5842 8834,5842 12255,3048 16035,5207 19816,7366 17656,-5461 17656,-5461 L 19726,-8255"/>
       </g>
      </g>
      <g class="com.sun.star.drawing.ClosedBezierShape">
       <g id="id11">
        <rect class="BoundingBox" stroke="none" fill="none" x="-3684" y="13421" width="17910" height="9198"/>
        <g>
         <defs>
          <linearGradient id="gradient4" x1="-3683" y1="18019" x2="14224" y2="18019" gradientUnits="userSpaceOnUse">
           <stop offset="0" style="stop-color:rgb(150,150,200)"/>
           <stop offset="1" style="stop-color:rgb(50,50,200)"/>
          </linearGradient>
         </defs>
         <path style="fill:url(#gradient4)" d="M -1016,15505 L -500,14806 -1,14269 479,13878 710,13733 937,13618 1157,13531 1371,13471 1578,13435 1779,13422 1973,13429 2159,13455 2338,13496 2508,13552 2825,13699 3107,13879 3351,14076 3556,14273 3719,14454 3839,14604 3937,14743 3948,14764 3983,14824 4045,14915 4137,15033 4263,15169 4426,15319 4628,15475 4874,15632 5165,15783 5506,15921 5899,16041 6348,16136 6856,16200 7425,16226 8060,16208 8763,16140 9125,16111 9473,16119 9807,16161 10128,16234 10435,16337 10729,16467 11010,16622 11277,16799 11774,17211 12221,17685 12619,18202 12970,18744 13274,19291 13534,19826 13924,20783 14151,21467 14224,21728 -3683,22617 -1016,15505 Z"/>
        </g>
        <path fill="none" stroke="rgb(142,134,174)" d="M -1016,15505 C 1778,11314 3937,14743 3937,14743 3937,14743 4826,16648 8763,16140 12700,15632 14224,21728 14224,21728 L -3683,22617 -1016,15505 Z"/>
       </g>
      </g>
      <g class="com.sun.star.drawing.ClosedBezierShape">
       <g id="id12">
        <rect class="BoundingBox" stroke="none" fill="none" x="5964" y="6476" width="23121" height="17608"/>
        <defs>
         <mask id="mask2">
          <g>
           <defs>
            <linearGradient id="gradient5" x1="17524" y1="6477" x2="17524" y2="24082" gradientUnits="userSpaceOnUse">
             <stop offset="0.5" style="stop-color:rgb(255,255,255)"/>
             <stop offset="1" style="stop-color:rgb(0,0,0)"/>
            </linearGradient>
           </defs>
           <path style="fill:url(#gradient5)" d="M 5965,6477 L 29083,6477 29083,24082 5965,24082 5965,6477 Z"/>
          </g>
         </mask>
        </defs>
        <g style="mask:url(#mask2)">
         <g>
          <defs>
           <linearGradient id="gradient6" x1="10823" y1="3673" x2="24226" y2="26886" gradientUnits="userSpaceOnUse">
            <stop offset="0" style="stop-color:rgb(170,170,170)"/>
            <stop offset="1" style="stop-color:rgb(50,50,200)"/>
           </linearGradient>
          </defs>
          <path style="fill:url(#gradient6)" d="M 5965,17517 L 6118,16920 6321,16370 6573,15866 6869,15406 7206,14988 7579,14610 7985,14270 8421,13967 9366,13462 10385,13080 11447,12806 12523,12624 13583,12521 14598,12480 16374,12526 17613,12642 18079,12707 18428,12787 19358,12937 19987,12997 20696,13025 21463,13004 22266,12918 23084,12750 23895,12484 24677,12102 25050,11863 25407,11589 25747,11278 26066,10928 26361,10537 26630,10102 26869,9622 27077,9095 27387,7889 27611,6898 27716,6627 27767,6544 27817,6494 27841,6482 27865,6477 27889,6480 27913,6490 27960,6534 28005,6607 28093,6834 28177,7163 28331,8090 28470,9316 28701,12375 28993,18897 29083,22100 15991,24082 5965,17517 Z"/>
         </g>
        </g>
        <path fill="none" stroke="rgb(142,134,174)" d="M 5965,17517 C 7300,10882 18079,12707 18079,12707 18079,12707 26143,14875 27387,7889 28631,904 29083,22100 29083,22100 L 15991,24082 5965,17517 Z"/>
       </g>
      </g>
      <g class="com.sun.star.drawing.OpenBezierShape">
       <g id="id13">
        <rect class="BoundingBox" stroke="none" fill="none" x="5714" y="1930" width="29467" height="18106"/>
        <path fill="none" stroke="rgb(183,179,202)" d="M 5715,20034 C 8001,11525 18288,14192 18288,14192 18288,14192 29337,18002 29083,5810 28829,-6382 35179,14065 35179,14065"/>
       </g>
      </g>
      <g class="com.sun.star.drawing.ClosedBezierShape">
       <g id="id14">
        <rect class="BoundingBox" stroke="none" fill="none" x="10922" y="15086" width="13082" height="6125"/>
        <g>
         <defs>
          <linearGradient id="gradient7" x1="14502" y1="13024" x2="20422" y2="23277" gradientUnits="userSpaceOnUse">
           <stop offset="0" style="stop-color:rgb(170,170,255)"/>
           <stop offset="1" style="stop-color:rgb(50,50,200)"/>
          </linearGradient>
         </defs>
         <path style="fill:url(#gradient7)" d="M 10922,18796 L 11822,17585 12301,17083 12797,16647 13306,16272 13827,15956 14357,15694 14895,15484 15982,15205 17070,15092 18141,15118 19177,15256 20159,15478 21070,15759 21890,16070 22602,16385 23628,16919 24003,17145 22479,21209 22606,21209 10922,18796 Z"/>
        </g>
       </g>
      </g>
      <g class="com.sun.star.drawing.CustomShape">
       <g id="id15">
        <rect class="BoundingBox" stroke="none" fill="none" x="3743" y="5233" width="773" height="879"/>
        <defs>
         <mask id="mask3">
          <g>
           <defs>
            <linearGradient id="gradient8" x1="4129" y1="5340" x2="4129" y2="6111" gradientUnits="userSpaceOnUse">
             <stop offset="0.5" style="stop-color:rgb(128,128,128)"/>
             <stop offset="1" style="stop-color:rgb(128,128,128)"/>
            </linearGradient>
           </defs>
           <path style="fill:url(#gradient8)" d="M 3744,5340 L 4515,5340 4515,6111 3744,6111 3744,5340 Z"/>
          </g>
         </mask>
        </defs>
        <g style="mask:url(#mask3)">
         <g>
          <defs>
           <linearGradient id="gradient9" x1="4129" y1="5340" x2="4129" y2="6111" gradientUnits="userSpaceOnUse">
            <stop offset="0" style="stop-color:rgb(0,0,0)"/>
            <stop offset="1" style="stop-color:rgb(0,0,0)"/>
           </linearGradient>
          </defs>
          <path style="fill:url(#gradient9)" d="M 4413,5465 L 4395,5446 4376,5430 4357,5414 4336,5400 4314,5387 4292,5376 4268,5366 4245,5357 4220,5351 4195,5346 4170,5342 4145,5340 4120,5340 4095,5341 4070,5344 4045,5349 4021,5355 3997,5363 3973,5373 3951,5384 3929,5396 3908,5410 3887,5425 3868,5441 3850,5459 3833,5478 3818,5498 3804,5519 3791,5540 3779,5563 3770,5586 3761,5610 3754,5634 3749,5659 3746,5684 3744,5709 3744,5734 3745,5759 3748,5784 3753,5809 3759,5834 3767,5858 3776,5881 3787,5904 3800,5926 3813,5947 3829,5967 3845,5986 3863,6004 3882,6021 3902,6036 3922,6051 3944,6063 3966,6075 3990,6085 4014,6093 4038,6100 4063,6105 4088,6109 4113,6110 4138,6111 4163,6109 4188,6106 4213,6102 4237,6095 4261,6087 4285,6078 4307,6067 4329,6055 4350,6041 4371,6026 4390,6009 4408,5991 4425,5973 4440,5953 4454,5932 4467,5910 4479,5888 4488,5865 4497,5841 4504,5816 4509,5792 4512,5767 4514,5742 4514,5716 4513,5691 4510,5666 4505,5641 4499,5617 4491,5593 4482,5570 4471,5547 4458,5525 4445,5504 4429,5484 4413,5465 Z"/>
         </g>
        </g>
        <g>
         <defs>
          <linearGradient id="gradient10" x1="4129" y1="5234" x2="4129" y2="6005" gradientUnits="userSpaceOnUse">
           <stop offset="0" style="stop-color:rgb(100,100,150)"/>
           <stop offset="1" style="stop-color:rgb(0,0,100)"/>
          </linearGradient>
         </defs>
         <path style="fill:url(#gradient10)" d="M 4413,5359 L 4395,5340 4376,5324 4357,5308 4336,5294 4314,5281 4292,5270 4268,5260 4245,5251 4220,5245 4195,5240 4170,5236 4145,5234 4120,5234 4095,5235 4070,5238 4045,5243 4021,5249 3997,5257 3973,5267 3951,5278 3929,5290 3908,5304 3887,5319 3868,5335 3850,5353 3833,5372 3818,5392 3804,5413 3791,5434 3779,5457 3770,5480 3761,5504 3754,5528 3749,5553 3746,5578 3744,5603 3744,5628 3745,5653 3748,5678 3753,5703 3759,5728 3767,5752 3776,5775 3787,5798 3800,5820 3813,5841 3829,5861 3845,5880 3863,5898 3882,5915 3902,5930 3922,5945 3944,5957 3966,5969 3990,5979 4014,5987 4038,5994 4063,5999 4088,6003 4113,6004 4138,6005 4163,6003 4188,6000 4213,5996 4237,5989 4261,5981 4285,5972 4307,5961 4329,5949 4350,5935 4371,5920 4390,5903 4408,5885 4425,5867 4440,5847 4454,5826 4467,5804 4479,5782 4488,5759 4497,5735 4504,5710 4509,5686 4512,5661 4514,5636 4514,5610 4513,5585 4510,5560 4505,5535 4499,5511 4491,5487 4482,5464 4471,5441 4458,5419 4445,5398 4429,5378 4413,5359 Z"/>
        </g>
       </g>
      </g>
      <g class="com.sun.star.drawing.CustomShape">
       <g id="id16">
        <rect class="BoundingBox" stroke="none" fill="none" x="18978" y="10143" width="795" height="901"/>
        <defs>
         <mask id="mask4">
          <g>
           <defs>
            <linearGradient id="gradient11" x1="19375" y1="10250" x2="19375" y2="11043" gradientUnits="userSpaceOnUse">
             <stop offset="0.5" style="stop-color:rgb(128,128,128)"/>
             <stop offset="1" style="stop-color:rgb(128,128,128)"/>
            </linearGradient>
           </defs>
           <path style="fill:url(#gradient11)" d="M 18979,10250 L 19772,10250 19772,11043 18979,11043 18979,10250 Z"/>
          </g>
         </mask>
        </defs>
        <g style="mask:url(#mask4)">
         <g>
          <defs>
           <linearGradient id="gradient12" x1="19375" y1="10250" x2="19375" y2="11043" gradientUnits="userSpaceOnUse">
            <stop offset="0" style="stop-color:rgb(0,0,0)"/>
            <stop offset="1" style="stop-color:rgb(0,0,0)"/>
           </linearGradient>
          </defs>
          <path style="fill:url(#gradient12)" d="M 19667,10378 L 19649,10359 19629,10342 19609,10326 19588,10312 19565,10298 19542,10287 19518,10277 19494,10268 19469,10261 19443,10256 19418,10252 19392,10250 19366,10250 19340,10251 19314,10254 19289,10259 19264,10266 19239,10274 19215,10284 19192,10295 19169,10308 19147,10322 19127,10337 19107,10354 19088,10373 19071,10392 19055,10412 19040,10434 19027,10456 19016,10479 19005,10503 18997,10528 18990,10553 18984,10578 18981,10604 18979,10629 18979,10655 18980,10681 18983,10707 18988,10733 18995,10758 19003,10782 19012,10806 19024,10830 19036,10852 19050,10874 19066,10895 19083,10915 19101,10933 19121,10950 19141,10966 19162,10981 19185,10994 19208,11006 19232,11016 19256,11025 19281,11032 19307,11037 19332,11040 19358,11042 19384,11043 19410,11041 19436,11038 19461,11033 19487,11027 19511,11019 19535,11009 19559,10998 19581,10985 19603,10971 19624,10955 19643,10938 19662,10920 19679,10901 19695,10880 19710,10859 19723,10837 19735,10814 19745,10790 19753,10765 19760,10740 19766,10715 19769,10689 19771,10663 19771,10637 19770,10611 19767,10586 19762,10560 19756,10535 19747,10510 19738,10486 19727,10463 19714,10440 19700,10419 19684,10398 19667,10378 Z"/>
         </g>
        </g>
        <g>
         <defs>
          <linearGradient id="gradient13" x1="19375" y1="10144" x2="19375" y2="10937" gradientUnits="userSpaceOnUse">
           <stop offset="0" style="stop-color:rgb(100,100,150)"/>
           <stop offset="1" style="stop-color:rgb(0,0,100)"/>
          </linearGradient>
         </defs>
         <path style="fill:url(#gradient13)" d="M 19667,10272 L 19649,10253 19629,10236 19609,10220 19588,10206 19565,10192 19542,10181 19518,10171 19494,10162 19469,10155 19443,10150 19418,10146 19392,10144 19366,10144 19340,10145 19314,10148 19289,10153 19264,10160 19239,10168 19215,10178 19192,10189 19169,10202 19147,10216 19127,10231 19107,10248 19088,10267 19071,10286 19055,10306 19040,10328 19027,10350 19016,10373 19005,10397 18997,10422 18990,10447 18984,10472 18981,10498 18979,10523 18979,10549 18980,10575 18983,10601 18988,10627 18995,10652 19003,10676 19012,10700 19024,10724 19036,10746 19050,10768 19066,10789 19083,10809 19101,10827 19121,10844 19141,10860 19162,10875 19185,10888 19208,10900 19232,10910 19256,10919 19281,10926 19307,10931 19332,10934 19358,10936 19384,10937 19410,10935 19436,10932 19461,10927 19487,10921 19511,10913 19535,10903 19559,10892 19581,10879 19603,10865 19624,10849 19643,10832 19662,10814 19679,10795 19695,10774 19710,10753 19723,10731 19735,10708 19745,10684 19753,10659 19760,10634 19766,10609 19769,10583 19771,10557 19771,10531 19770,10505 19767,10480 19762,10454 19756,10429 19747,10404 19738,10380 19727,10357 19714,10334 19700,10313 19684,10292 19667,10272 Z"/>
        </g>
       </g>
      </g>
      <g class="com.sun.star.drawing.CustomShape">
       <g id="id17">
        <rect class="BoundingBox" stroke="none" fill="none" x="19075" y="4150" width="827" height="933"/>
        <defs>
         <mask id="mask5">
          <g>
           <defs>
            <linearGradient id="gradient14" x1="19488" y1="4257" x2="19488" y2="5082" gradientUnits="userSpaceOnUse">
             <stop offset="0.5" style="stop-color:rgb(128,128,128)"/>
             <stop offset="1" style="stop-color:rgb(128,128,128)"/>
            </linearGradient>
           </defs>
           <path style="fill:url(#gradient14)" d="M 19076,4257 L 19901,4257 19901,5082 19076,5082 19076,4257 Z"/>
          </g>
         </mask>
        </defs>
        <g style="mask:url(#mask5)">
         <g>
          <defs>
           <linearGradient id="gradient15" x1="19488" y1="4257" x2="19488" y2="5082" gradientUnits="userSpaceOnUse">
            <stop offset="0" style="stop-color:rgb(0,0,0)"/>
            <stop offset="1" style="stop-color:rgb(0,0,0)"/>
           </linearGradient>
          </defs>
          <path style="fill:url(#gradient15)" d="M 19792,4390 L 19773,4371 19753,4353 19731,4336 19709,4321 19686,4307 19662,4295 19637,4285 19612,4276 19585,4268 19559,4263 19532,4259 19506,4257 19479,4257 19452,4258 19425,4262 19398,4267 19372,4273 19346,4282 19321,4292 19297,4304 19274,4317 19251,4332 19230,4348 19209,4366 19190,4384 19172,4405 19155,4426 19140,4448 19126,4471 19114,4495 19103,4520 19094,4546 19087,4572 19082,4598 19078,4625 19076,4652 19076,4679 19077,4706 19080,4732 19085,4759 19092,4785 19101,4811 19111,4836 19122,4860 19136,4884 19150,4906 19167,4928 19184,4948 19203,4968 19223,4986 19245,5002 19267,5017 19290,5031 19314,5043 19339,5054 19364,5063 19391,5070 19417,5076 19444,5079 19471,5081 19497,5082 19524,5080 19551,5077 19578,5072 19604,5065 19630,5057 19655,5047 19679,5035 19702,5022 19725,5007 19747,4991 19767,4973 19786,4954 19804,4934 19821,4913 19836,4891 19850,4867 19862,4843 19873,4818 19882,4793 19889,4767 19894,4740 19898,4714 19900,4687 19900,4660 19899,4633 19896,4606 19891,4580 19884,4553 19875,4528 19865,4503 19854,4478 19840,4455 19826,4432 19809,4411 19792,4390 Z"/>
         </g>
        </g>
        <g>
         <defs>
          <linearGradient id="gradient16" x1="19488" y1="4151" x2="19488" y2="4976" gradientUnits="userSpaceOnUse">
           <stop offset="0" style="stop-color:rgb(200,200,255)"/>
           <stop offset="1" style="stop-color:rgb(50,50,200)"/>
          </linearGradient>
         </defs>
         <path style="fill:url(#gradient16)" d="M 19792,4284 L 19773,4265 19753,4247 19731,4230 19709,4215 19686,4201 19662,4189 19637,4179 19612,4170 19585,4162 19559,4157 19532,4153 19506,4151 19479,4151 19452,4152 19425,4156 19398,4161 19372,4167 19346,4176 19321,4186 19297,4198 19274,4211 19251,4226 19230,4242 19209,4260 19190,4278 19172,4299 19155,4320 19140,4342 19126,4365 19114,4389 19103,4414 19094,4440 19087,4466 19082,4492 19078,4519 19076,4546 19076,4573 19077,4600 19080,4626 19085,4653 19092,4679 19101,4705 19111,4730 19122,4754 19136,4778 19150,4800 19167,4822 19184,4842 19203,4862 19223,4880 19245,4896 19267,4911 19290,4925 19314,4937 19339,4948 19364,4957 19391,4964 19417,4970 19444,4973 19471,4975 19497,4976 19524,4974 19551,4971 19578,4966 19604,4959 19630,4951 19655,4941 19679,4929 19702,4916 19725,4901 19747,4885 19767,4867 19786,4848 19804,4828 19821,4807 19836,4785 19850,4761 19862,4737 19873,4712 19882,4687 19889,4661 19894,4634 19898,4608 19900,4581 19900,4554 19899,4527 19896,4500 19891,4474 19884,4447 19875,4422 19865,4397 19854,4372 19840,4349 19826,4326 19809,4305 19792,4284 Z"/>
        </g>
       </g>
      </g>
      <g class="com.sun.star.drawing.CustomShape">
       <g id="id18">
        <rect class="BoundingBox" stroke="none" fill="none" x="11006" y="3537" width="431" height="537"/>
        <defs>
         <mask id="mask6">
          <g>
           <defs>
            <linearGradient id="gradient17" x1="11221" y1="3644" x2="11221" y2="4072" gradientUnits="userSpaceOnUse">
             <stop offset="0.5" style="stop-color:rgb(128,128,128)"/>
             <stop offset="1" style="stop-color:rgb(128,128,128)"/>
            </linearGradient>
           </defs>
           <path style="fill:url(#gradient17)" d="M 11007,3644 L 11435,3644 11435,4072 11007,4072 11007,3644 Z"/>
          </g>
         </mask>
        </defs>
        <g style="mask:url(#mask6)">
         <g>
          <defs>
           <linearGradient id="gradient18" x1="11221" y1="3644" x2="11221" y2="4072" gradientUnits="userSpaceOnUse">
            <stop offset="0" style="stop-color:rgb(0,0,0)"/>
            <stop offset="1" style="stop-color:rgb(0,0,0)"/>
           </linearGradient>
          </defs>
          <path style="fill:url(#gradient18)" d="M 11379,3713 L 11369,3703 11358,3694 11347,3685 11336,3677 11324,3670 11311,3664 11298,3658 11285,3654 11272,3650 11258,3647 11244,3645 11230,3644 11216,3644 11202,3645 11188,3647 11174,3649 11161,3653 11148,3657 11135,3662 11122,3668 11110,3675 11098,3683 11087,3691 11076,3700 11066,3710 11057,3721 11048,3732 11040,3743 11033,3755 11027,3768 11021,3781 11017,3794 11013,3807 11010,3821 11008,3835 11007,3849 11007,3863 11008,3877 11010,3891 11012,3905 11016,3918 11020,3931 11025,3944 11031,3957 11038,3969 11046,3981 11054,3992 11063,4003 11073,4013 11084,4022 11095,4031 11106,4039 11118,4046 11131,4052 11144,4058 11157,4062 11170,4066 11184,4069 11198,4071 11212,4072 11226,4072 11240,4071 11254,4069 11268,4067 11281,4063 11294,4059 11307,4054 11320,4048 11332,4041 11344,4033 11355,4025 11366,4016 11376,4006 11385,3995 11394,3984 11402,3973 11409,3961 11415,3948 11421,3935 11425,3922 11429,3909 11432,3895 11434,3881 11435,3867 11435,3853 11434,3839 11432,3825 11430,3811 11426,3798 11422,3785 11417,3772 11411,3759 11404,3747 11396,3735 11388,3724 11379,3713 Z"/>
         </g>
        </g>
        <g>
         <defs>
          <linearGradient id="gradient19" x1="11221" y1="3538" x2="11221" y2="3966" gradientUnits="userSpaceOnUse">
           <stop offset="0" style="stop-color:rgb(100,100,150)"/>
           <stop offset="1" style="stop-color:rgb(0,0,100)"/>
          </linearGradient>
         </defs>
         <path style="fill:url(#gradient19)" d="M 11379,3607 L 11369,3597 11358,3588 11347,3579 11336,3571 11324,3564 11311,3558 11298,3552 11285,3548 11272,3544 11258,3541 11244,3539 11230,3538 11216,3538 11202,3539 11188,3541 11174,3543 11161,3547 11148,3551 11135,3556 11122,3562 11110,3569 11098,3577 11087,3585 11076,3594 11066,3604 11057,3615 11048,3626 11040,3637 11033,3649 11027,3662 11021,3675 11017,3688 11013,3701 11010,3715 11008,3729 11007,3743 11007,3757 11008,3771 11010,3785 11012,3799 11016,3812 11020,3825 11025,3838 11031,3851 11038,3863 11046,3875 11054,3886 11063,3897 11073,3907 11084,3916 11095,3925 11106,3933 11118,3940 11131,3946 11144,3952 11157,3956 11170,3960 11184,3963 11198,3965 11212,3966 11226,3966 11240,3965 11254,3963 11268,3961 11281,3957 11294,3953 11307,3948 11320,3942 11332,3935 11344,3927 11355,3919 11366,3910 11376,3900 11385,3889 11394,3878 11402,3867 11409,3855 11415,3842 11421,3829 11425,3816 11429,3803 11432,3789 11434,3775 11435,3761 11435,3747 11434,3733 11432,3719 11430,3705 11426,3692 11422,3679 11417,3666 11411,3653 11404,3641 11396,3629 11388,3618 11379,3607 Z"/>
        </g>
       </g>
      </g>
      <g class="com.sun.star.drawing.CustomShape">
       <g id="id19">
        <rect class="BoundingBox" stroke="none" fill="none" x="8896" y="10911" width="975" height="1081"/>
        <defs>
         <mask id="mask7">
          <g>
           <defs>
            <linearGradient id="gradient20" x1="9383" y1="11018" x2="9383" y2="11991" gradientUnits="userSpaceOnUse">
             <stop offset="0.5" style="stop-color:rgb(128,128,128)"/>
             <stop offset="1" style="stop-color:rgb(128,128,128)"/>
            </linearGradient>
           </defs>
           <path style="fill:url(#gradient20)" d="M 8897,11018 L 9870,11018 9870,11991 8897,11991 8897,11018 Z"/>
          </g>
         </mask>
        </defs>
        <g style="mask:url(#mask7)">
         <g>
          <defs>
           <linearGradient id="gradient21" x1="9383" y1="11018" x2="9383" y2="11991" gradientUnits="userSpaceOnUse">
            <stop offset="0" style="stop-color:rgb(0,0,0)"/>
            <stop offset="1" style="stop-color:rgb(0,0,0)"/>
           </linearGradient>
          </defs>
          <path style="fill:url(#gradient21)" d="M 9741,11175 L 9719,11152 9695,11131 9670,11112 9644,11094 9617,11078 9588,11063 9559,11051 9529,11040 9498,11032 9467,11025 9435,11021 9404,11018 9372,11018 9340,11020 9309,11024 9277,11029 9246,11037 9216,11047 9186,11059 9158,11073 9130,11089 9104,11106 9078,11125 9054,11146 9031,11168 9010,11192 8990,11217 8972,11243 8956,11271 8942,11299 8929,11328 8919,11359 8910,11389 8904,11421 8899,11452 8897,11484 8897,11515 8898,11547 8902,11579 8908,11610 8916,11641 8926,11671 8938,11701 8952,11729 8967,11757 8985,11784 9004,11809 9025,11833 9047,11856 9071,11877 9096,11897 9122,11915 9149,11931 9178,11945 9207,11958 9237,11968 9268,11977 9299,11984 9331,11988 9362,11990 9394,11991 9426,11989 9458,11985 9489,11979 9520,11971 9550,11961 9580,11949 9608,11936 9636,11920 9662,11903 9688,11883 9712,11863 9735,11840 9756,11816 9776,11791 9794,11765 9810,11738 9824,11709 9837,11680 9847,11650 9856,11619 9862,11588 9867,11557 9869,11525 9869,11493 9868,11461 9864,11430 9858,11398 9850,11367 9840,11337 9828,11308 9814,11279 9799,11251 9781,11225 9762,11199 9741,11175 Z"/>
         </g>
        </g>
        <g>
         <defs>
          <linearGradient id="gradient22" x1="9383" y1="10912" x2="9383" y2="11885" gradientUnits="userSpaceOnUse">
           <stop offset="0" style="stop-color:rgb(200,200,255)"/>
           <stop offset="1" style="stop-color:rgb(50,50,200)"/>
          </linearGradient>
         </defs>
         <path style="fill:url(#gradient22)" d="M 9741,11069 L 9719,11046 9695,11025 9670,11006 9644,10988 9617,10972 9588,10957 9559,10945 9529,10934 9498,10926 9467,10919 9435,10915 9404,10912 9372,10912 9340,10914 9309,10918 9277,10923 9246,10931 9216,10941 9186,10953 9158,10967 9130,10983 9104,11000 9078,11019 9054,11040 9031,11062 9010,11086 8990,11111 8972,11137 8956,11165 8942,11193 8929,11222 8919,11253 8910,11283 8904,11315 8899,11346 8897,11378 8897,11409 8898,11441 8902,11473 8908,11504 8916,11535 8926,11565 8938,11595 8952,11623 8967,11651 8985,11678 9004,11703 9025,11727 9047,11750 9071,11771 9096,11791 9122,11809 9149,11825 9178,11839 9207,11852 9237,11862 9268,11871 9299,11878 9331,11882 9362,11884 9394,11885 9426,11883 9458,11879 9489,11873 9520,11865 9550,11855 9580,11843 9608,11830 9636,11814 9662,11797 9688,11777 9712,11757 9735,11734 9756,11710 9776,11685 9794,11659 9810,11632 9824,11603 9837,11574 9847,11544 9856,11513 9862,11482 9867,11451 9869,11419 9869,11387 9868,11355 9864,11324 9858,11292 9850,11261 9840,11231 9828,11202 9814,11173 9799,11145 9781,11119 9762,11093 9741,11069 Z"/>
        </g>
       </g>
      </g>
      <g class="com.sun.star.drawing.CustomShape">
       <g id="id20">
        <rect class="BoundingBox" stroke="none" fill="none" x="12303" y="14370" width="749" height="855"/>
        <defs>
         <mask id="mask8">
          <g>
           <defs>
            <linearGradient id="gradient23" x1="12677" y1="14477" x2="12677" y2="15224" gradientUnits="userSpaceOnUse">
             <stop offset="0.5" style="stop-color:rgb(199,199,199)"/>
             <stop offset="1" style="stop-color:rgb(199,199,199)"/>
            </linearGradient>
           </defs>
           <path style="fill:url(#gradient23)" d="M 12304,14477 L 13051,14477 13051,15224 12304,15224 12304,14477 Z"/>
          </g>
         </mask>
        </defs>
        <g style="mask:url(#mask8)">
         <g>
          <defs>
           <linearGradient id="gradient24" x1="12677" y1="14477" x2="12677" y2="15224" gradientUnits="userSpaceOnUse">
            <stop offset="0" style="stop-color:rgb(70,70,70)"/>
            <stop offset="1" style="stop-color:rgb(70,70,70)"/>
           </linearGradient>
          </defs>
          <path style="fill:url(#gradient24)" d="M 12952,14598 L 12935,14580 12917,14564 12897,14549 12877,14535 12856,14523 12835,14512 12812,14502 12789,14494 12765,14487 12741,14482 12717,14479 12693,14477 12668,14477 12644,14478 12620,14481 12596,14486 12572,14492 12549,14500 12526,14509 12504,14519 12483,14531 12463,14545 12443,14559 12424,14575 12407,14592 12391,14611 12376,14630 12362,14650 12349,14671 12338,14693 12329,14715 12321,14738 12314,14762 12309,14786 12306,14810 12304,14834 12304,14859 12305,14883 12308,14907 12312,14932 12319,14955 12326,14979 12335,15001 12346,15023 12358,15044 12371,15065 12386,15084 12402,15103 12419,15120 12437,15137 12457,15152 12477,15166 12498,15178 12520,15189 12542,15199 12565,15207 12589,15213 12613,15218 12637,15222 12661,15223 12686,15224 12710,15222 12734,15219 12758,15215 12782,15209 12805,15201 12828,15192 12850,15181 12871,15169 12892,15156 12911,15141 12930,15125 12947,15108 12964,15090 12979,15071 12992,15051 13005,15030 13016,15008 13025,14985 13033,14962 13040,14939 13045,14915 13048,14890 13050,14866 13050,14842 13049,14817 13046,14793 13042,14769 13035,14745 13028,14722 13019,14699 13008,14677 12996,14656 12983,14636 12968,14616 12952,14598 Z"/>
         </g>
        </g>
        <g>
         <defs>
          <linearGradient id="gradient25" x1="12677" y1="14371" x2="12677" y2="15118" gradientUnits="userSpaceOnUse">
           <stop offset="0" style="stop-color:rgb(255,255,0)"/>
           <stop offset="1" style="stop-color:rgb(100,100,0)"/>
          </linearGradient>
         </defs>
         <path style="fill:url(#gradient25)" d="M 12952,14492 L 12935,14474 12917,14458 12897,14443 12877,14429 12856,14417 12835,14406 12812,14396 12789,14388 12765,14381 12741,14376 12717,14373 12693,14371 12668,14371 12644,14372 12620,14375 12596,14380 12572,14386 12549,14394 12526,14403 12504,14413 12483,14425 12463,14439 12443,14453 12424,14469 12407,14486 12391,14505 12376,14524 12362,14544 12349,14565 12338,14587 12329,14609 12321,14632 12314,14656 12309,14680 12306,14704 12304,14728 12304,14753 12305,14777 12308,14801 12312,14826 12319,14849 12326,14873 12335,14895 12346,14917 12358,14938 12371,14959 12386,14978 12402,14997 12419,15014 12437,15031 12457,15046 12477,15060 12498,15072 12520,15083 12542,15093 12565,15101 12589,15107 12613,15112 12637,15116 12661,15117 12686,15118 12710,15116 12734,15113 12758,15109 12782,15103 12805,15095 12828,15086 12850,15075 12871,15063 12892,15050 12911,15035 12930,15019 12947,15002 12964,14984 12979,14965 12992,14945 13005,14924 13016,14902 13025,14879 13033,14856 13040,14833 13045,14809 13048,14784 13050,14760 13050,14736 13049,14711 13046,14687 13042,14663 13035,14639 13028,14616 13019,14593 13008,14571 12996,14550 12983,14530 12968,14510 12952,14492 Z"/>
        </g>
       </g>
      </g>
      <g class="com.sun.star.drawing.CustomShape">
       <g id="id21">
        <rect class="BoundingBox" stroke="none" fill="none" x="21403" y="13185" width="793" height="899"/>
        <defs>
         <mask id="mask9">
          <g>
           <defs>
            <linearGradient id="gradient26" x1="21799" y1="13292" x2="21799" y2="14082" gradientUnits="userSpaceOnUse">
             <stop offset="0.5" style="stop-color:rgb(184,184,184)"/>
             <stop offset="1" style="stop-color:rgb(184,184,184)"/>
            </linearGradient>
           </defs>
           <path style="fill:url(#gradient26)" d="M 21404,13292 L 22194,13292 22194,14082 21404,14082 21404,13292 Z"/>
          </g>
         </mask>
        </defs>
        <g style="mask:url(#mask9)">
         <g>
          <defs>
           <linearGradient id="gradient27" x1="21799" y1="13292" x2="21799" y2="14082" gradientUnits="userSpaceOnUse">
            <stop offset="0" style="stop-color:rgb(70,70,70)"/>
            <stop offset="1" style="stop-color:rgb(70,70,70)"/>
           </linearGradient>
          </defs>
          <path style="fill:url(#gradient27)" d="M 22090,13420 L 22072,13401 22052,13384 22032,13368 22011,13354 21989,13340 21966,13329 21942,13319 21917,13310 21892,13303 21867,13298 21841,13294 21816,13292 21790,13292 21764,13294 21739,13297 21713,13301 21688,13308 21663,13316 21639,13326 21616,13337 21594,13350 21572,13364 21551,13379 21532,13396 21513,13414 21496,13434 21480,13454 21466,13475 21452,13497 21441,13520 21431,13544 21422,13569 21415,13594 21410,13619 21406,13645 21404,13670 21404,13696 21406,13722 21409,13747 21413,13773 21420,13798 21428,13823 21438,13847 21449,13870 21462,13892 21476,13914 21491,13935 21508,13954 21526,13973 21546,13990 21566,14006 21587,14020 21609,14034 21632,14045 21656,14055 21681,14064 21706,14071 21731,14076 21757,14080 21782,14082 21808,14082 21834,14080 21859,14077 21885,14073 21910,14066 21935,14058 21959,14048 21982,14037 22004,14024 22026,14010 22047,13995 22066,13978 22085,13960 22102,13940 22118,13920 22132,13899 22146,13877 22157,13854 22167,13830 22176,13805 22183,13780 22188,13755 22192,13729 22194,13704 22194,13678 22192,13652 22189,13627 22185,13601 22178,13576 22170,13551 22160,13527 22149,13504 22136,13482 22122,13460 22107,13439 22090,13420 Z"/>
         </g>
        </g>
        <g>
         <defs>
          <linearGradient id="gradient28" x1="21799" y1="13186" x2="21799" y2="13976" gradientUnits="userSpaceOnUse">
           <stop offset="0" style="stop-color:rgb(255,255,0)"/>
           <stop offset="1" style="stop-color:rgb(100,100,0)"/>
          </linearGradient>
         </defs>
         <path style="fill:url(#gradient28)" d="M 22090,13314 L 22072,13295 22052,13278 22032,13262 22011,13248 21989,13234 21966,13223 21942,13213 21917,13204 21892,13197 21867,13192 21841,13188 21816,13186 21790,13186 21764,13188 21739,13191 21713,13195 21688,13202 21663,13210 21639,13220 21616,13231 21594,13244 21572,13258 21551,13273 21532,13290 21513,13308 21496,13328 21480,13348 21466,13369 21452,13391 21441,13414 21431,13438 21422,13463 21415,13488 21410,13513 21406,13539 21404,13564 21404,13590 21406,13616 21409,13641 21413,13667 21420,13692 21428,13717 21438,13741 21449,13764 21462,13786 21476,13808 21491,13829 21508,13848 21526,13867 21546,13884 21566,13900 21587,13914 21609,13928 21632,13939 21656,13949 21681,13958 21706,13965 21731,13970 21757,13974 21782,13976 21808,13976 21834,13974 21859,13971 21885,13967 21910,13960 21935,13952 21959,13942 21982,13931 22004,13918 22026,13904 22047,13889 22066,13872 22085,13854 22102,13834 22118,13814 22132,13793 22146,13771 22157,13748 22167,13724 22176,13699 22183,13674 22188,13649 22192,13623 22194,13598 22194,13572 22192,13546 22189,13521 22185,13495 22178,13470 22170,13445 22160,13421 22149,13398 22136,13376 22122,13354 22107,13333 22090,13314 Z"/>
        </g>
       </g>
      </g>
      <g class="com.sun.star.drawing.CustomShape">
       <g id="id22">
        <rect class="BoundingBox" stroke="none" fill="none" x="8190" y="14497" width="401" height="507"/>
        <defs>
         <mask id="mask10">
          <g>
           <defs>
            <linearGradient id="gradient29" x1="8390" y1="14604" x2="8390" y2="15003" gradientUnits="userSpaceOnUse">
             <stop offset="0.5" style="stop-color:rgb(166,166,166)"/>
             <stop offset="1" style="stop-color:rgb(166,166,166)"/>
            </linearGradient>
           </defs>
           <path style="fill:url(#gradient29)" d="M 8191,14604 L 8590,14604 8590,15003 8191,15003 8191,14604 Z"/>
          </g>
         </mask>
        </defs>
        <g style="mask:url(#mask10)">
         <g>
          <defs>
           <linearGradient id="gradient30" x1="8390" y1="14604" x2="8390" y2="15003" gradientUnits="userSpaceOnUse">
            <stop offset="0" style="stop-color:rgb(70,70,70)"/>
            <stop offset="1" style="stop-color:rgb(70,70,70)"/>
           </linearGradient>
          </defs>
          <path style="fill:url(#gradient30)" d="M 8537,14668 L 8528,14659 8518,14650 8508,14642 8497,14635 8486,14628 8474,14622 8462,14617 8450,14613 8437,14609 8424,14607 8411,14605 8398,14604 8385,14604 8372,14605 8359,14606 8347,14609 8334,14612 8322,14616 8309,14621 8298,14626 8286,14633 8275,14640 8265,14648 8255,14656 8246,14666 8237,14675 8229,14686 8222,14696 8215,14708 8209,14719 8204,14731 8200,14744 8196,14756 8194,14769 8192,14782 8191,14795 8191,14808 8191,14821 8193,14834 8195,14847 8199,14859 8203,14872 8208,14884 8213,14896 8220,14907 8227,14918 8235,14928 8243,14938 8252,14948 8262,14956 8272,14964 8283,14972 8294,14978 8306,14984 8318,14989 8330,14994 8343,14997 8356,15000 8369,15002 8382,15003 8395,15003 8408,15002 8421,15000 8433,14998 8446,14995 8459,14991 8471,14986 8482,14980 8494,14974 8505,14967 8515,14959 8525,14950 8534,14941 8543,14931 8551,14921 8558,14910 8565,14899 8571,14887 8576,14875 8580,14863 8584,14850 8587,14838 8588,14825 8589,14812 8589,14799 8589,14786 8587,14773 8585,14760 8581,14747 8577,14735 8573,14723 8567,14711 8560,14700 8553,14689 8545,14678 8537,14668 Z"/>
         </g>
        </g>
        <g>
         <defs>
          <linearGradient id="gradient31" x1="8390" y1="14498" x2="8390" y2="14897" gradientUnits="userSpaceOnUse">
           <stop offset="0" style="stop-color:rgb(255,255,0)"/>
           <stop offset="1" style="stop-color:rgb(100,100,0)"/>
          </linearGradient>
         </defs>
         <path style="fill:url(#gradient31)" d="M 8537,14562 L 8528,14553 8518,14544 8508,14536 8497,14529 8486,14522 8474,14516 8462,14511 8450,14507 8437,14503 8424,14501 8411,14499 8398,14498 8385,14498 8372,14499 8359,14500 8347,14503 8334,14506 8322,14510 8309,14515 8298,14520 8286,14527 8275,14534 8265,14542 8255,14550 8246,14560 8237,14569 8229,14580 8222,14590 8215,14602 8209,14613 8204,14625 8200,14638 8196,14650 8194,14663 8192,14676 8191,14689 8191,14702 8191,14715 8193,14728 8195,14741 8199,14753 8203,14766 8208,14778 8213,14790 8220,14801 8227,14812 8235,14822 8243,14832 8252,14842 8262,14850 8272,14858 8283,14866 8294,14872 8306,14878 8318,14883 8330,14888 8343,14891 8356,14894 8369,14896 8382,14897 8395,14897 8408,14896 8421,14894 8433,14892 8446,14889 8459,14885 8471,14880 8482,14874 8494,14868 8505,14861 8515,14853 8525,14844 8534,14835 8543,14825 8551,14815 8558,14804 8565,14793 8571,14781 8576,14769 8580,14757 8584,14744 8587,14732 8588,14719 8589,14706 8589,14693 8589,14680 8587,14667 8585,14654 8581,14641 8577,14629 8573,14617 8567,14605 8560,14594 8553,14583 8545,14572 8537,14562 Z"/>
        </g>
       </g>
      </g>
      <g class="com.sun.star.drawing.CustomShape">
       <g id="id23">
        <rect class="BoundingBox" stroke="none" fill="none" x="2028" y="609" width="1365" height="1471"/>
        <defs>
         <mask id="mask11">
          <g>
           <defs>
            <linearGradient id="gradient32" x1="2710" y1="716" x2="2710" y2="2078" gradientUnits="userSpaceOnUse">
             <stop offset="0.5" style="stop-color:rgb(179,179,179)"/>
             <stop offset="1" style="stop-color:rgb(179,179,179)"/>
            </linearGradient>
           </defs>
           <path style="fill:url(#gradient32)" d="M 2029,716 L 3391,716 3391,2078 2029,2078 2029,716 Z"/>
          </g>
         </mask>
        </defs>
        <g style="mask:url(#mask11)">
         <g>
          <defs>
           <linearGradient id="gradient33" x1="2710" y1="716" x2="2710" y2="2078" gradientUnits="userSpaceOnUse">
            <stop offset="0" style="stop-color:rgb(70,70,70)"/>
            <stop offset="1" style="stop-color:rgb(70,70,70)"/>
           </linearGradient>
          </defs>
          <path style="fill:url(#gradient33)" d="M 3212,936 L 3180,904 3147,875 3112,847 3075,822 3037,800 2997,780 2956,762 2914,747 2871,735 2827,726 2783,720 2739,717 2694,716 2650,719 2606,724 2562,732 2518,743 2476,757 2435,774 2395,793 2356,815 2319,840 2283,866 2249,895 2217,927 2188,960 2160,995 2135,1032 2113,1070 2093,1110 2075,1151 2060,1193 2048,1236 2039,1280 2033,1324 2030,1368 2029,1413 2032,1457 2037,1501 2045,1545 2056,1589 2070,1631 2087,1672 2106,1712 2128,1751 2153,1788 2179,1824 2208,1858 2240,1890 2273,1919 2308,1947 2345,1972 2383,1994 2423,2014 2464,2032 2506,2047 2549,2059 2593,2068 2637,2074 2681,2077 2726,2078 2770,2075 2814,2070 2858,2062 2902,2051 2944,2037 2985,2020 3025,2001 3064,1979 3101,1954 3137,1928 3171,1899 3203,1867 3232,1834 3260,1799 3285,1762 3307,1724 3327,1684 3345,1643 3360,1601 3372,1558 3381,1514 3387,1470 3390,1426 3391,1381 3388,1337 3383,1293 3375,1249 3364,1205 3350,1163 3333,1122 3314,1082 3292,1043 3267,1006 3241,970 3212,936 3212,936 Z"/>
         </g>
        </g>
        <g>
         <defs>
          <linearGradient id="gradient34" x1="2710" y1="610" x2="2710" y2="1972" gradientUnits="userSpaceOnUse">
           <stop offset="0" style="stop-color:rgb(255,255,0)"/>
           <stop offset="1" style="stop-color:rgb(100,100,0)"/>
          </linearGradient>
         </defs>
         <path style="fill:url(#gradient34)" d="M 3212,830 L 3180,798 3147,769 3112,741 3075,716 3037,694 2997,674 2956,656 2914,641 2871,629 2827,620 2783,614 2739,611 2694,610 2650,613 2606,618 2562,626 2518,637 2476,651 2435,668 2395,687 2356,709 2319,734 2283,760 2249,789 2217,821 2188,854 2160,889 2135,926 2113,964 2093,1004 2075,1045 2060,1087 2048,1130 2039,1174 2033,1218 2030,1262 2029,1307 2032,1351 2037,1395 2045,1439 2056,1483 2070,1525 2087,1566 2106,1606 2128,1645 2153,1682 2179,1718 2208,1752 2240,1784 2273,1813 2308,1841 2345,1866 2383,1888 2423,1908 2464,1926 2506,1941 2549,1953 2593,1962 2637,1968 2681,1971 2726,1972 2770,1969 2814,1964 2858,1956 2902,1945 2944,1931 2985,1914 3025,1895 3064,1873 3101,1848 3137,1822 3171,1793 3203,1761 3232,1728 3260,1693 3285,1656 3307,1618 3327,1578 3345,1537 3360,1495 3372,1452 3381,1408 3387,1364 3390,1320 3391,1275 3388,1231 3383,1187 3375,1143 3364,1099 3350,1057 3333,1016 3314,976 3292,937 3267,900 3241,864 3212,830 3212,830 Z"/>
        </g>
       </g>
      </g>
     </g>
    </g>
   </g>
  </g>
 </g>
</svg>